<svg id="Layer_1" data-name="Layer 1" xmlns="http://www.w3.org/2000/svg" viewBox="0 0 149.13 4.37"><defs><style>.cls-1{fill:#e03d30;}</style></defs><title>logo-lapo-sm</title><path class="cls-1" d="M.86,0v3.5H2.67v.82H0V0Z"/><path class="cls-1" d="M5.65,4.34H4.75L6.14,0h1L8.54,4.34H7.61l-.28-1H5.93Zm.53-1.79H7.1L6.64,1Z"/><path class="cls-1" d="M11.77,3.24v1.1h-.85V0h.85v2l1.49-2h1l-1.33,1.7,1.39,2.61h-1l-1-1.88Z"/><path class="cls-1" d="M19.53,0V.84h-2v.89h1.59v.82H17.57v1h2v.82H16.7V0Z"/><path class="cls-1" d="M25.88,4.34H25L26.38,0h1l1.39,4.32h-.93l-.28-1h-1.4Zm.53-1.79h.92L26.88,1Z"/><path class="cls-1" d="M30.91,0h2.82V.84h-2v.92h1.59v.82H31.78V4.34h-.86Z"/><path class="cls-1" d="M37.86.83V4.34H37V.83H35.87V0H39v.8Z"/><path class="cls-1" d="M43.54,0a.81.81,0,0,1,.85.85V3.51a.81.81,0,0,1-.85.85H42.09a.81.81,0,0,1-.85-.85V.85A.81.81,0,0,1,42.09,0Zm0,1a.18.18,0,0,0-.2-.2h-1a.18.18,0,0,0-.2.2V3.35a.18.18,0,0,0,.2.2h1a.18.18,0,0,0,.2-.2Z"/><path class="cls-1" d="M50.36,0V4.34h-.93L47.84,1.4V4.34H47V0H48L49.55,3V0Z"/><path class="cls-1" d="M58.7,0a.81.81,0,0,1,.85.85V2a.81.81,0,0,1-.85.85H57.36V4.34H56.5V0Zm-.22,2a.18.18,0,0,0,.2-.2V1a.18.18,0,0,0-.2-.2H57.36V2Z"/><path class="cls-1" d="M65.07,3.51a.81.81,0,0,1-.85.85H62.84A.81.81,0,0,1,62,3.51V0h.86V3.35a.18.18,0,0,0,.2.2H64a.18.18,0,0,0,.2-.2V0h.86Z"/><path class="cls-1" d="M69.93,0a.81.81,0,0,1,.85.85v.61a.7.7,0,0,1-.38.65.7.7,0,0,1,.43.65v.71a.81.81,0,0,1-.85.85H67.75V0Zm-.22,1.73c.16,0,.2,0,.2-.2V1a.18.18,0,0,0-.2-.2h-1.1v.92Zm0,1.79a.18.18,0,0,0,.2-.2V2.71c0-.18-.11-.19-.28-.19H68.61v1Z"/><path class="cls-1" d="M74.31,0v3.5h1.81v.82H73.45V0Z"/><path class="cls-1" d="M78.58,0h.86V4.34h-.86Z"/><path class="cls-1" d="M84.29,1a.18.18,0,0,0-.2-.2h-.94a.18.18,0,0,0-.2.2V3.35a.18.18,0,0,0,.2.2h.94a.18.18,0,0,0,.2-.2V2.82h.86v.7a.81.81,0,0,1-.85.85H82.94a.81.81,0,0,1-.85-.85V.85A.81.81,0,0,1,82.94,0H84.3a.81.81,0,0,1,.85.85v.7h-.86Z"/><path class="cls-1" d="M93.3,0a.81.81,0,0,1,.85.85V3.51a.81.81,0,0,1-.85.85H91.86A.81.81,0,0,1,91,3.51V.85A.81.81,0,0,1,91.86,0Zm0,1a.18.18,0,0,0-.2-.2h-1a.18.18,0,0,0-.2.2V3.35a.18.18,0,0,0,.2.2h1a.18.18,0,0,0,.2-.2Z"/><path class="cls-1" d="M99,0a.81.81,0,0,1,.85.85v.61a.7.7,0,0,1-.38.65.7.7,0,0,1,.43.65v.71a.81.81,0,0,1-.85.85H96.8V0Zm-.22,1.73c.16,0,.2,0,.2-.2V1a.18.18,0,0,0-.2-.2h-1.1v.92Zm0,1.79a.18.18,0,0,0,.2-.2V2.71c0-.18-.11-.19-.28-.19H97.67v1Z"/><path class="cls-1" d="M104.51,1a.18.18,0,0,0-.2-.2h-.86a.18.18,0,0,0-.2.2v.41c0,.13.07.17.2.2l1.12.24c.47.1.86.38.86.86v.78a.81.81,0,0,1-.85.85h-1.34a.81.81,0,0,1-.85-.85V3h.84v.38a.18.18,0,0,0,.2.2h.94a.18.18,0,0,0,.2-.2V2.89c0-.13-.07-.17-.2-.2l-1.12-.24c-.47-.1-.86-.38-.86-.86V.85a.81.81,0,0,1,.85-.85h1.27a.81.81,0,0,1,.85.85v.5h-.84Z"/><path class="cls-1" d="M110.87,0V.84h-2v.89h1.59v.82h-1.59v1h2v.82H108V0Z"/><path class="cls-1" d="M115.69,4.34l-.7-1.6h-.7v1.6h-.86V0h2.2a.81.81,0,0,1,.85.85v1a.8.8,0,0,1-.59.82l.72,1.64ZM115.62,1a.18.18,0,0,0-.2-.2H114.3v1.1h1.12a.18.18,0,0,0,.2-.2Z"/><path class="cls-1" d="M120.89,4.34h-1L118.57,0h1l.83,3.28L121.24,0h1Z"/><path class="cls-1" d="M124.69,4.34h-.89L125.19,0h1l1.39,4.32h-.93l-.28-1H125Zm.53-1.79h.92L125.69,1Z"/><path class="cls-1" d="M131.23.83V4.34h-.86V.83h-1.13V0h3.12v.8Z"/><path class="cls-1" d="M136.91,0a.81.81,0,0,1,.85.85V3.51a.81.81,0,0,1-.85.85h-1.45a.81.81,0,0,1-.85-.85V.85a.81.81,0,0,1,.85-.85Zm0,1a.18.18,0,0,0-.2-.2h-1a.18.18,0,0,0-.2.2V3.35a.18.18,0,0,0,.2.2h1a.18.18,0,0,0,.2-.2Z"/><path class="cls-1" d="M142.66,4.34l-.7-1.6h-.7v1.6h-.86V0h2.2a.81.81,0,0,1,.85.85v1a.8.8,0,0,1-.59.82l.72,1.64ZM142.59,1a.18.18,0,0,0-.2-.2h-1.12v1.1h1.12a.18.18,0,0,0,.2-.2Z"/><path class="cls-1" d="M146.94,4.34V2.85L145.61,0h.95l.82,1.85L148.19,0h.95L147.8,2.85V4.34Z"/></svg>